<svg width="919" height="845" viewBox="0 0 919 845" fill="none" xmlns="http://www.w3.org/2000/svg">
<path fill-rule="evenodd" clip-rule="evenodd" d="M493.924 0.0119773C573.587 -0.958594 639.65 57.2367 699.817 109.49C755.367 157.735 789.285 220.685 823.209 285.991C864.667 365.8 921.988 441.311 918.879 531.203C915.199 637.593 894.269 763.596 804.702 821.047C715.165 878.479 599.552 816.199 493.924 803.78C403.441 793.142 303.71 809.99 232.034 753.72C161.213 698.121 159.627 596.022 123.948 513.329C83.169 418.815 -31.5986 330.052 8.29606 235.162C49.0989 138.111 196.924 160.328 291.642 114.463C363.116 79.854 414.526 0.979315 493.924 0.0119773Z" fill="#BC73AD"/>
</svg>
