<svg xmlns="http://www.w3.org/2000/svg" viewBox="0 0 2231.67 1986.92"><defs><style>.cls-1{fill:#e1e4f4;}.cls-2{fill:#dae0f5;}.cls-3{fill:#242f72;}.cls-4{fill:#3d4fbf;}.cls-5{fill:#bc73ad;}.cls-6{fill:#dde2f8;}.cls-7{fill:#362e94;}.cls-8{fill:#4662cc;}.cls-9{fill:#423eaf;}.cls-10{fill:#bbc0e6;}.cls-11{fill:#ced3f8;}.cls-12{fill:#f2f3f9;}.cls-13{fill:#f6f6fb;}.cls-14{fill:#ed9f00;}.cls-15{fill:#f0ccc0;}.cls-16{fill:#fcba06;}.cls-17{fill:#20196f;}.cls-18{fill:#ffd03e;}.cls-19{fill:#e19100;}.cls-20{fill:#fbba05;}.cls-21{fill:#cf7c00;}</style></defs><g id="Shadow"><path class="cls-1" d="M1405.66,1826c0-16.54,170.44-30,380.67-30S2167,1809.44,2167,1826s-170.43,30-380.67,30S1405.66,1842.53,1405.66,1826Z"/><path class="cls-2" d="M153.79,1698.46c0-23.89,367.36-43.26,820.49-43.26s820.51,19.37,820.51,43.26-367.36,43.26-820.51,43.26S153.79,1722.36,153.79,1698.46Z"/></g><g id="Plants"><path class="cls-3" d="M754.73,436.32c-41.65-135.65-171.15-165-322.59-94.24C494.21,457,639.59,540.28,754.73,436.32Z"/><path class="cls-4" d="M802.4,398.4c102.89,14.93,162.89-61.64,163.51-184.1C870.36,219.38,769.64,289.57,802.4,398.4Z"/><path class="cls-5" d="M465,238.36c-17.55,2.31-35.94-1.12-36.62-12.08-.63-10.44,16.05-15.85,33.11-17-10.81-10.9-17.47-24.06-10.7-30.91,13.27-13.45,52.08,26.15,52.9,41.4,4.28,19.81-30.75,60.93-45.14,48.61C451.71,262.54,456.49,250.05,465,238.36Z"/><path class="cls-6" d="M636.56,302.1a3,3,0,0,1-2.29-1.05C590,249.12,524.72,220.88,504,222.77a3,3,0,0,1-.55-6c24.76-2.29,91.34,28.62,135.43,80.37a3,3,0,0,1-2.28,4.94Z"/><path class="cls-6" d="M491,235c-.8-2.93.83-6.4,2.56-9.39-4.8,0-11.67-3.08-10.91-8.26.55-3.71,6.86-3.23,12.29-2a21.13,21.13,0,0,1-2.69-5.17c-4.92-15.06,14.38.89,13.83,9.41a45.19,45.19,0,0,1-2.06,8.92C501.61,236.09,492.55,240.71,491,235Z"/><path class="cls-3" d="M641.73,1243.21c114.08-107,80.31-249.4-63.1-365C495,995.36,483,1179.63,641.73,1243.21Z"/><path class="cls-7" d="M641.72,1246.21a3,3,0,0,1-2.91-2.32c-6.79-29.21-14-78.94-21.55-131.58-9.19-63.71-19.61-135.92-31.72-189.1a3,3,0,1,1,5.85-1.33c12.17,53.41,22.6,125.75,31.8,189.57,7.58,52.52,14.73,102.12,21.46,131.08a3,3,0,0,1-2.24,3.6A2.71,2.71,0,0,1,641.72,1246.21Z"/><path class="cls-8" d="M780.89,438.12C876.64,305.48,813.52,166,643.19,76,580.69,213,605.23,404.52,780.89,438.12Z"/><path class="cls-9" d="M780.89,441.12a3,3,0,0,1-2.74-1.78C765.33,410.68,748,361,729.69,308.41c-22.14-63.53-47.24-135.53-70.28-187.68a3,3,0,0,1,5.49-2.42C688,170.67,713.18,242.8,735.35,306.43c18.29,52.48,35.56,102,48.28,130.46a3,3,0,0,1-1.51,4A3.16,3.16,0,0,1,780.89,441.12Z"/><path class="cls-10" d="M1750.47,1404.4c34.43-2.55,48,27,54.58,45.27C1794.46,1449.65,1751.61,1447.07,1750.47,1404.4Z"/><path class="cls-10" d="M1753.87,1409.84a3,3,0,0,1-1.73-.55c-104.65-73.85-174.26-169.18-204.52-233.78a3,3,0,0,1,5.44-2.54c29.93,63.9,98.85,158.24,202.54,231.41a3,3,0,0,1-1.73,5.46Z"/><path class="cls-10" d="M1559.42,1223.45c3.07,69.64-46.19,83.63-83.35,95.78C1476.74,1297.85,1473.23,1223.16,1559.42,1223.45Z"/><path class="cls-10" d="M1594.72,1280.17c16.29,53.53-19.22,74.25-45.68,91.12C1545.29,1354.53,1527.64,1297.16,1594.72,1280.17Z"/><path class="cls-10" d="M1644.62,1333.08c24.4,41.45-1.12,65.9-19.83,85.32C1618.29,1405.16,1592,1360.76,1644.62,1333.08Z"/><path class="cls-10" d="M1696.88,1380.16c21.74,20.52,10.74,39.53,2.93,54.36C1693.64,1427.75,1670.27,1405.8,1696.88,1380.16Z"/><path class="cls-10" d="M1593.1,1209.72c49,37.18,83.88,8.44,111.35-12.42C1688.59,1187.05,1636.15,1147,1593.1,1209.72Z"/><path class="cls-10" d="M1632.65,1270.68c36.75,38.26,70.33,18.46,96.54,4.36C1717.06,1264.2,1677.74,1223,1632.65,1270.68Z"/><path class="cls-10" d="M1690,1335.39c31.37,18.18,49.67-1.17,64.21-15.38C1744.2,1315.18,1710.61,1295.58,1690,1335.39Z"/><path class="cls-10" d="M1731.72,1376.27c16,13.77,28.57,4.64,38.42-1.94C1764.92,1370.49,1747.78,1355.67,1731.72,1376.27Z"/><path class="cls-6" d="M1550.83,1179c-4.46-138.23,105.67-206.18,267.61-188.86C1797.55,1115.72,1689.86,1238.44,1550.83,1179Z"/><path class="cls-10" d="M1550.83,1182a3,3,0,0,1-1.59-5.55c22.34-13.91,57.87-40.51,95.48-68.67,45.61-34.13,97.3-72.83,138.26-98.61a3,3,0,1,1,3.2,5.07c-40.76,25.66-92.35,64.28-137.86,98.35-37.72,28.23-73.35,54.9-95.9,69A3,3,0,0,1,1550.83,1182Z"/><path class="cls-4" d="M684.47,1456.06c15.86-7.76,50.35-170.32,19.7-179-23.88-6.72-31.55,18.46-33.61,27.81-3.26,14.75-8.77,50.71-19.3,46.59-19-7.48,6.49-96.69,11.38-118.8s8.35-66.39-9.35-84.12-26.92-22.9-33.31,16.28-9.37,117.9-27.84,95.53-2-82.93-5.23-121.11-22.48-109.77-44.65-91.47c-19.82,16.36,5.82,126.59-13.5,122.33-15.46-3.41-11-35.88-19.83-85.54s-17.71-96.47-47.71-93.93c-24.08,2-11.71,32.65-7.28,59.49s9.18,64.46-4.57,57.41S426.65,967.19,387,961.8c-26.22-3.56-15.26,24.28-11.87,55.81s2.25,42.86-4.19,41.44S353,1015.84,347.3,992.73,325.53,938.42,303.8,943s-8.75,40.65-.86,52.88,10.19,27.22,6.53,29.54-32.54-36.17-50-18.18,13.71,52.08,38.18,57.48S355,1078.27,353,1087.19s-30.31,2.68-52.64-2.24-32.32-1.79-33.63,4.16c-4.39,19.84,21,43,37.28,46.59s110.39,11.88,107.48,25.07-37.87,6.35-55.9,2.37-60.11-13.27-65,8.84,49.15,46.53,84,52,91.89,10,89.63,20.24-48.62,14.23-70.51,9.4-58.53-24.52-64.53,2.7,26.2,40.13,69.18,49.62c18,4,62.54,13.33,90,3.56,31.25-11.14,48.65-11.55,51.6-4.42,5.86,14.23-23,20.35-44.5,20s-88.44-5.24-83.18,28,60.09,23.53,82.53,21.79,101-14.72,103.93,2.44-40.23,13-53.77,13.09-41.46,9.36-34.58,20S656.18,1469.88,684.47,1456.06Z"/><path class="cls-1" d="M573,1670.14c38.08-25,131.93-209.4,58.15-245.13-69.93-33.87-92.11,110.36-96.27,129.09-14.57-70.78-33.64-139.46-80.31-127s0,112.41,0,112.41c-42.5-54.12-148.42-137.41-196.63-112.42s97.93,114.68,97.93,114.68c-66.41-37.67-264.87-88.39-66.67,7.36-90.74-29.35-267.71-43.76-71,17.47-118.4-10.28-178.5,5.84-180.58,22.49s32.65,40.21,185.66,44.08c-75.57,12.49-113.48,30.17-94,37Z"/><path class="cls-1" d="M319.43,1581.15a6.15,6.15,0,1,0-6.15,6.14A6.15,6.15,0,0,0,319.43,1581.15Z"/><path class="cls-1" d="M530.44,1617.32a9.46,9.46,0,1,0-9.46,9.46A9.46,9.46,0,0,0,530.44,1617.32Z"/><path class="cls-1" d="M407.28,1547.24a8.08,8.08,0,1,0-8.08,8.07A8.07,8.07,0,0,0,407.28,1547.24Z"/></g><g id="Paper_sheet" data-name="Paper sheet"><path class="cls-1" d="M1419.28,368.26H733.08a42.12,42.12,0,0,0-42,42V1644.7a42.12,42.12,0,0,0,42,42h840.36a42.12,42.12,0,0,0,42-42V564.42Z"/><path class="cls-11" d="M1419.28,522.42a42.12,42.12,0,0,0,42,42h154.16L1419.28,368.26Z"/></g><g id="Shapes_on_paper_sheet" data-name="Shapes on paper sheet"><path class="cls-5" d="M859.29,503.32A12.65,12.65,0,1,1,871.94,516,12.65,12.65,0,0,1,859.29,503.32Z"/><path class="cls-5" d="M923,503.32A12.64,12.64,0,1,1,935.59,516,12.64,12.64,0,0,1,923,503.32Z"/><path class="cls-5" d="M820.93,503.32A12.65,12.65,0,1,0,808.29,516,12.64,12.64,0,0,0,820.93,503.32Z"/><path class="cls-5" d="M1011.88,503.32A12.64,12.64,0,1,0,999.24,516,12.64,12.64,0,0,0,1011.88,503.32Z"/><path class="cls-5" d="M1050.25,503.32A12.65,12.65,0,1,1,1062.89,516,12.64,12.64,0,0,1,1050.25,503.32Z"/><path class="cls-8" d="M1271.29,568.92H795.64a4.5,4.5,0,0,1,0-9h475.65a4.5,4.5,0,0,1,0,9Z"/><rect class="cls-12" x="785.79" y="638.46" width="163.89" height="70"/><rect class="cls-12" x="996.75" y="638.46" width="523.98" height="70"/><rect class="cls-12" x="785.79" y="750.46" width="163.89" height="70"/><rect class="cls-12" x="996.75" y="750.46" width="523.98" height="70"/><rect class="cls-12" x="785.79" y="862.46" width="163.89" height="70"/><rect class="cls-12" x="996.75" y="862.46" width="523.98" height="70"/><rect class="cls-12" x="785.79" y="974.46" width="163.89" height="70"/><rect class="cls-12" x="996.75" y="974.46" width="523.98" height="70"/><rect class="cls-12" x="785.79" y="1086.46" width="163.89" height="70"/><rect class="cls-12" x="996.75" y="1086.46" width="523.98" height="70"/><rect class="cls-12" x="785.79" y="1198.46" width="163.89" height="70"/><rect class="cls-12" x="996.75" y="1198.46" width="523.98" height="70"/><rect class="cls-12" x="785.79" y="1310.45" width="163.89" height="70"/><rect class="cls-12" x="996.75" y="1310.45" width="523.98" height="70"/><rect class="cls-13" x="1193.79" y="1534.45" width="326.94" height="94.01"/><rect class="cls-8" x="785.79" y="1422.45" width="163.89" height="70"/><rect class="cls-8" x="996.75" y="1422.45" width="523.98" height="70"/><path class="cls-3" d="M1509.46,1652.73a3,3,0,0,1-2.12-.88c-25-24.95-30-64.43-28-94.6-50.4,48.59-99.52,62.28-111.45,55.74a6.54,6.54,0,0,1-3.18-8.33c1.92-5.66-.14-10.67-5.67-13.73-8.73-4.85-28-4.42-45.15,16.59a3,3,0,0,1-5-3.19c.84-1.77-.71-4.53-3.78-6.7-6.62-4.68-24.07-8.57-42.76,10.11a3,3,0,0,1-4.81-3.44c10-20.28,10.3-37.93.91-45-10.35-7.75-29.44-1.43-48.63,16.12a3,3,0,1,1-4-4.43c26-23.77,46.12-24.11,56.28-16.49,10,7.49,11.89,22.69,5.62,41.06,15.8-10.56,31.59-9.44,40.9-2.86a17.09,17.09,0,0,1,5.34,5.83c16.61-16.78,36.22-19.45,48.07-12.88,8.07,4.47,11.3,12.48,8.44,20.9-.27.8-.14.86.38,1.15,9.59,5.24,59.48-9.53,109.43-59.82a125.91,125.91,0,0,1,4.8-23.42c6-18.14,14.89-25.21,21.27-25.76a8,8,0,0,1,8,4.18c3,5.59.34,14.47-7.11,23.76-7,8.78-14.15,16.79-21.29,24.1-3.18,29.41.17,71.31,25.7,96.84a3,3,0,0,1-2.12,5.12Zm-2.32-148h-.33c-3.2.28-10.68,5.17-16.09,21.66a104.34,104.34,0,0,0-3.4,14.16q7.64-8.22,15.17-17.6c6.47-8.07,7.9-14.57,6.5-17.18A1.88,1.88,0,0,0,1507.14,1504.69Z"/></g><g id="Man"><path class="cls-4" d="M1689.35,1123.19c0,85.47.3,468.56.3,643.54h31c17.44-43.38,133.7-561,145.5-643.54Z"/><path class="cls-4" d="M1720.7,1778.09v-11.36h-31a76.63,76.63,0,0,1-3.56,20.66C1694.16,1790.5,1706,1782.48,1720.7,1778.09Z"/><path class="cls-7" d="M1720.7,1778.09c-14.73,4.39-26.54,12.41-34.61,9.3-4.28,3.11-67.25,25.75-73.66,30.13s-5.6,11.46,1.34,11.46c10.16,0,93.77-3.68,93.77-3.68,1.7,1.84,3.07,3.68,3.07,3.68h19.12C1735.42,1819.1,1733.88,1789.45,1720.7,1778.09Z"/><path class="cls-8" d="M1949,1778.09v-11.36h-31a76.63,76.63,0,0,1-3.56,20.66C1922.49,1790.5,1934.29,1782.48,1949,1778.09Z"/><path class="cls-7" d="M1949,1778.09c-14.73,4.39-26.53,12.41-34.61,9.3-4.28,3.11-67.25,25.75-73.66,30.13s-5.59,11.46,1.35,11.46c10.15,0,93.77-3.68,93.77-3.68,1.69,1.84,3.06,3.68,3.06,3.68h19.12C1963.74,1819.1,1962.2,1789.45,1949,1778.09Z"/><path class="cls-8" d="M1918.37,1123.19c1.76,32.42,30.65,468.56,30.65,643.54h-31c-17.44-43.38-164.67-561-176.46-643.54Z"/><path class="cls-14" d="M1784.13,743c-40.67,25.22-139.61,149.2-163.74,157.65-23.75,8.31-103.39-47-129.33-72.9a127.07,127.07,0,0,1-20.44,16c12.67,18.7,112.67,143.44,153.39,138s86.87-53.7,122.17-80.85S1784.13,743,1784.13,743Z"/><path class="cls-15" d="M1491.06,827.73c-15.75-9.75-12.27-27.47-24.92-40.3s-14.33-14.86-16.34-11.22,13,20.67,9.33,20.38c-6.18-.49-30.15-39.49-36.45-37.67-4.35,1.25,11.91,25,20.69,35-11.37-1.59-27.73-41.44-32.51-36.77-3.2,3.13,13.6,36.5,25.64,43.15-10.64-1.24-26.15-35.15-31.55-32.65-4.36,2,12.24,32.1,23,38.56-9.42-3-18.58-18.82-21.4-16-3.48,3.52,15.9,26.66,35.09,41.56,15.18,11.78,18.19,6,28.93,12C1482.68,838.18,1491.06,827.73,1491.06,827.73Z"/><path class="cls-16" d="M1465.33,846.69s28.12-21.88,29.76-23.58c6,4.19,16.37,15.66,17,15.66-4.61,4.82-31.86,30.4-33,30.4C1476.62,866.57,1465.33,846.69,1465.33,846.69Z"/><path class="cls-16" d="M1918.37,1123.19h-229c6-82.79,7.76-293.35,45.74-339.68,44.93-54.82,77.15-48.49,121.19-4.45C1915.68,838.45,1927.47,1054.17,1918.37,1123.19Z"/><path class="cls-14" d="M1734.08,1123.32l-12-.25c1.77-83.64,3.74-130,5.18-163.9.79-18.76,1.42-33.58,1.82-49.52,1.64-64.85,28-131.83,41-151.69l10,6.6c-10.84,16.45-37.46,81.66-39.07,145.4-.41,16-1,30.9-1.84,49.72C1737.81,993.5,1735.85,1039.81,1734.08,1123.32Z"/><path class="cls-15" d="M1822.6,693.28c-1.36,11.06-1.88,53.14,7.5,65.18-6.76,5.13-42.43,12.36-69.11,1.67,5.73-7.07,14.79-11.83,7.48-24.37-8-13.66-21.44,4.7-32.11-17.69-12.46-26.1-16.23-77.58-3.88-91.92,13.82-16.06,41.39-35.69,78.66-13.81C1841.55,630.19,1825.37,670.8,1822.6,693.28Z"/><path class="cls-17" d="M1794.56,668c-8.46.12-4.14-22.06-10.36-27.34-7.34-6.25-31.91-9.86-55.72-7.23S1689.82,605,1705,592.09s29.09,4.88,40.44,1.09c13.21-4.42,10.88-20.55,30.53-18.86,18.16,1.55,9.92,18.45,21.45,21.44,11.9,3.09,29.37-12.69,43.9,6,10.77,13.83-5.43,21.91-3.7,37.29,1.08,9.61,25,38-.79,50s-19.85-14.35-18.49-25.25-3.58-18.07-9-18.29S1806.64,667.84,1794.56,668Z"/><path class="cls-14" d="M1826.7,748.31c-6.32,3.17-45.8,10.09-59.37,2.17a39.15,39.15,0,0,0-6.34,9.65c9.46,5.66,44.94,11.68,69.75-1.08C1829.16,754.76,1826.7,748.31,1826.7,748.31Z"/><path class="cls-18" d="M1855.15,777.32c41.59,34.92,126.62,144.42,126.62,225s-68.13,156.84-90.49,179.19l-27.16-27.15c16.55-16.55,60.49-126,52.34-156.72s-46.9-64.1-81.29-98.49-37.71-63.34-31.68-85.06S1837.8,762.76,1855.15,777.32Z"/><path class="cls-15" d="M1864.12,1154.32c-7.84,0-13,.29-19.91,7.23,7,3.62,47.07,19.92,47.07,19.92Z"/><path class="cls-14" d="M1891.49,1183.09s-29.15-30.48-31.35-32.19a187,187,0,0,1,15.62-22.7c6.22,4.85,38.27,32.5,38.41,33.84C1911.41,1165.27,1891.49,1183.09,1891.49,1183.09Z"/></g><g id="Coins"><path class="cls-19" d="M791.39,1429.86a4.26,4.26,0,0,1,4.22,4.27V1473a4.26,4.26,0,0,1-4.22,4.27h-50.1v-47.39Z"/><rect class="cls-14" x="684.14" y="1429.86" width="57.15" height="47.4" transform="translate(1425.44 2907.11) rotate(180)"/><path class="cls-18" d="M576.9,1429.86a4.25,4.25,0,0,0-4.22,4.27V1473a4.25,4.25,0,0,0,4.22,4.27h41.77v-47.39Z"/><rect class="cls-20" x="627" y="1429.86" width="57.14" height="47.4"/><rect class="cls-19" x="725.96" y="1429.86" width="8.33" height="47.4"/><rect class="cls-19" x="710.64" y="1429.86" width="8.33" height="47.4"/><rect class="cls-19" x="695.31" y="1429.86" width="8.33" height="47.4"/><rect class="cls-21" x="741.29" y="1429.86" width="8.34" height="47.4"/><path class="cls-21" d="M791.39,1429.86a4.26,4.26,0,0,1,4.22,4.27V1473a4.26,4.26,0,0,1-4.22,4.27h-4.11v-47.39Z"/><rect class="cls-21" x="771.95" y="1429.86" width="8.33" height="47.4"/><rect class="cls-21" x="756.62" y="1429.86" width="8.33" height="47.4"/><rect class="cls-19" x="679.98" y="1429.86" width="8.34" height="47.4"/><rect class="cls-20" x="588.01" y="1429.86" width="8.33" height="47.4"/><rect class="cls-20" x="603.34" y="1429.86" width="8.33" height="47.4"/><path class="cls-20" d="M576.9,1429.86H581v47.39H576.9a4.25,4.25,0,0,1-4.21-4.27v-38.85A4.25,4.25,0,0,1,576.9,1429.86Z"/><rect class="cls-14" x="634" y="1429.86" width="8.33" height="47.4"/><rect class="cls-14" x="618.67" y="1429.86" width="8.34" height="47.4"/><rect class="cls-14" x="649.32" y="1429.86" width="8.33" height="47.4"/><rect class="cls-14" x="664.65" y="1429.86" width="8.33" height="47.4"/><path class="cls-19" d="M829,1477.25a4.27,4.27,0,0,1,4.22,4.28v38.85a4.26,4.26,0,0,1-4.22,4.27h-50.1v-47.4Z"/><rect class="cls-14" x="721.79" y="1477.25" width="57.15" height="47.4" transform="translate(1500.73 3001.91) rotate(180)"/><path class="cls-18" d="M614.54,1477.25a4.26,4.26,0,0,0-4.21,4.28v38.85a4.26,4.26,0,0,0,4.21,4.27h41.78v-47.4Z"/><rect class="cls-20" x="664.65" y="1477.25" width="57.14" height="47.4"/><rect class="cls-19" x="763.61" y="1477.25" width="8.33" height="47.4"/><rect class="cls-19" x="748.28" y="1477.25" width="8.33" height="47.4"/><rect class="cls-19" x="732.96" y="1477.25" width="8.33" height="47.4"/><rect class="cls-21" x="778.94" y="1477.25" width="8.33" height="47.4"/><path class="cls-21" d="M829,1477.25a4.27,4.27,0,0,1,4.22,4.28v38.85a4.26,4.26,0,0,1-4.22,4.27h-4.12v-47.4Z"/><rect class="cls-21" x="809.6" y="1477.25" width="8.33" height="47.4"/><rect class="cls-21" x="794.27" y="1477.25" width="8.33" height="47.4"/><rect class="cls-19" x="717.63" y="1477.25" width="8.33" height="47.4"/><rect class="cls-20" x="625.66" y="1477.25" width="8.33" height="47.4"/><rect class="cls-20" x="640.99" y="1477.25" width="8.33" height="47.4"/><path class="cls-20" d="M614.55,1477.25h4.12v47.4h-4.12a4.26,4.26,0,0,1-4.22-4.27v-38.85A4.27,4.27,0,0,1,614.55,1477.25Z"/><rect class="cls-14" x="671.65" y="1477.25" width="8.33" height="47.4"/><rect class="cls-14" x="656.32" y="1477.25" width="8.34" height="47.4"/><rect class="cls-14" x="686.97" y="1477.25" width="8.33" height="47.4"/><rect class="cls-14" x="702.3" y="1477.25" width="8.33" height="47.4"/><path class="cls-19" d="M791.39,1524.65a4.26,4.26,0,0,1,4.22,4.27v38.86a4.26,4.26,0,0,1-4.22,4.27h-50.1v-47.4Z"/><rect class="cls-14" x="684.14" y="1524.65" width="57.15" height="47.4" transform="translate(1425.44 3096.7) rotate(180)"/><path class="cls-18" d="M576.9,1524.65a4.25,4.25,0,0,0-4.22,4.27v38.86a4.25,4.25,0,0,0,4.22,4.27h41.77v-47.4Z"/><rect class="cls-20" x="627" y="1524.65" width="57.14" height="47.4"/><rect class="cls-19" x="725.96" y="1524.65" width="8.33" height="47.4"/><rect class="cls-19" x="710.64" y="1524.65" width="8.33" height="47.4"/><rect class="cls-19" x="695.31" y="1524.65" width="8.33" height="47.4"/><rect class="cls-21" x="741.29" y="1524.65" width="8.34" height="47.4"/><path class="cls-21" d="M791.39,1524.65a4.26,4.26,0,0,1,4.22,4.27v38.86a4.26,4.26,0,0,1-4.22,4.27h-4.11v-47.4Z"/><rect class="cls-21" x="771.95" y="1524.65" width="8.33" height="47.4"/><rect class="cls-21" x="756.62" y="1524.65" width="8.33" height="47.4"/><rect class="cls-19" x="679.98" y="1524.65" width="8.34" height="47.4"/><rect class="cls-20" x="588.01" y="1524.65" width="8.33" height="47.4"/><rect class="cls-20" x="603.34" y="1524.65" width="8.33" height="47.4"/><path class="cls-20" d="M576.9,1524.65H581v47.4H576.9a4.25,4.25,0,0,1-4.21-4.27v-38.86A4.25,4.25,0,0,1,576.9,1524.65Z"/><rect class="cls-14" x="634" y="1524.65" width="8.33" height="47.4"/><rect class="cls-14" x="618.67" y="1524.65" width="8.34" height="47.4"/><rect class="cls-14" x="649.32" y="1524.65" width="8.33" height="47.4"/><rect class="cls-14" x="664.65" y="1524.65" width="8.33" height="47.4"/><path class="cls-19" d="M791.39,1619.45a4.26,4.26,0,0,1,4.22,4.27v38.85a4.26,4.26,0,0,1-4.22,4.27h-50.1v-47.39Z"/><rect class="cls-14" x="684.14" y="1619.45" width="57.15" height="47.39" transform="translate(1425.44 3286.29) rotate(180)"/><path class="cls-18" d="M576.9,1619.45a4.25,4.25,0,0,0-4.22,4.27v38.85a4.25,4.25,0,0,0,4.22,4.27h41.77v-47.39Z"/><rect class="cls-20" x="627" y="1619.45" width="57.14" height="47.39"/><rect class="cls-19" x="725.96" y="1619.45" width="8.33" height="47.39"/><rect class="cls-19" x="710.64" y="1619.45" width="8.33" height="47.39"/><rect class="cls-19" x="695.31" y="1619.45" width="8.33" height="47.39"/><rect class="cls-21" x="741.29" y="1619.45" width="8.34" height="47.39"/><path class="cls-21" d="M791.39,1619.45a4.26,4.26,0,0,1,4.22,4.27v38.85a4.26,4.26,0,0,1-4.22,4.27h-4.11v-47.39Z"/><rect class="cls-21" x="771.95" y="1619.45" width="8.33" height="47.39"/><rect class="cls-21" x="756.62" y="1619.45" width="8.33" height="47.39"/><rect class="cls-19" x="679.98" y="1619.45" width="8.34" height="47.39"/><rect class="cls-20" x="588.01" y="1619.45" width="8.33" height="47.39"/><rect class="cls-20" x="603.34" y="1619.45" width="8.33" height="47.39"/><path class="cls-20" d="M576.9,1619.45H581v47.39H576.9a4.25,4.25,0,0,1-4.21-4.27v-38.85A4.25,4.25,0,0,1,576.9,1619.45Z"/><rect class="cls-14" x="634" y="1619.45" width="8.33" height="47.39"/><rect class="cls-14" x="618.67" y="1619.45" width="8.34" height="47.39"/><rect class="cls-14" x="649.32" y="1619.45" width="8.33" height="47.39"/><rect class="cls-14" x="664.65" y="1619.45" width="8.33" height="47.39"/><path class="cls-19" d="M568.46,1619.45a4.26,4.26,0,0,1,4.23,4.27v38.85a4.26,4.26,0,0,1-4.23,4.27H518.37v-47.39Z"/><rect class="cls-14" x="461.22" y="1619.45" width="57.15" height="47.39" transform="translate(979.59 3286.29) rotate(180)"/><path class="cls-18" d="M354,1619.45a4.26,4.26,0,0,0-4.22,4.27v38.85a4.26,4.26,0,0,0,4.22,4.27h41.77v-47.39Z"/><rect class="cls-20" x="404.08" y="1619.45" width="57.14" height="47.39"/><rect class="cls-19" x="503.04" y="1619.45" width="8.33" height="47.39"/><rect class="cls-19" x="487.71" y="1619.45" width="8.33" height="47.39"/><rect class="cls-19" x="472.38" y="1619.45" width="8.34" height="47.39"/><rect class="cls-21" x="518.37" y="1619.45" width="8.34" height="47.39"/><path class="cls-21" d="M568.46,1619.45a4.26,4.26,0,0,1,4.23,4.27v38.85a4.26,4.26,0,0,1-4.23,4.27h-4.11v-47.39Z"/><rect class="cls-21" x="549.02" y="1619.45" width="8.33" height="47.39"/><rect class="cls-21" x="533.69" y="1619.45" width="8.34" height="47.39"/><rect class="cls-19" x="457.05" y="1619.45" width="8.34" height="47.39"/><rect class="cls-20" x="365.09" y="1619.45" width="8.33" height="47.39"/><rect class="cls-20" x="380.42" y="1619.45" width="8.33" height="47.39"/><path class="cls-20" d="M354,1619.45h4.11v47.39H354a4.26,4.26,0,0,1-4.22-4.27v-38.85A4.26,4.26,0,0,1,354,1619.45Z"/><rect class="cls-14" x="411.07" y="1619.45" width="8.33" height="47.39"/><rect class="cls-14" x="395.74" y="1619.45" width="8.34" height="47.39"/><rect class="cls-14" x="426.4" y="1619.45" width="8.33" height="47.39"/><rect class="cls-14" x="441.73" y="1619.45" width="8.33" height="47.39"/><path class="cls-19" d="M829,1572.05a4.26,4.26,0,0,1,4.22,4.27v38.85a4.27,4.27,0,0,1-4.22,4.28h-50.1v-47.4Z"/><rect class="cls-14" x="721.79" y="1572.05" width="57.15" height="47.4" transform="translate(1500.73 3191.5) rotate(180)"/><path class="cls-18" d="M614.54,1572.05a4.26,4.26,0,0,0-4.21,4.27v38.85a4.26,4.26,0,0,0,4.21,4.28h41.78v-47.4Z"/><rect class="cls-20" x="664.65" y="1572.05" width="57.14" height="47.4"/><rect class="cls-19" x="763.61" y="1572.05" width="8.33" height="47.4"/><rect class="cls-19" x="748.28" y="1572.05" width="8.33" height="47.4"/><rect class="cls-19" x="732.96" y="1572.05" width="8.33" height="47.4"/><rect class="cls-21" x="778.94" y="1572.05" width="8.33" height="47.4"/><path class="cls-21" d="M829,1572.05a4.26,4.26,0,0,1,4.22,4.27v38.85a4.27,4.27,0,0,1-4.22,4.28h-4.12v-47.4Z"/><rect class="cls-21" x="809.6" y="1572.05" width="8.33" height="47.4"/><rect class="cls-21" x="794.27" y="1572.05" width="8.33" height="47.4"/><rect class="cls-19" x="717.63" y="1572.05" width="8.33" height="47.4"/><rect class="cls-20" x="625.66" y="1572.05" width="8.33" height="47.4"/><rect class="cls-20" x="640.99" y="1572.05" width="8.33" height="47.4"/><path class="cls-20" d="M614.55,1572.05h4.12v47.4h-4.12a4.27,4.27,0,0,1-4.22-4.28v-38.85A4.26,4.26,0,0,1,614.55,1572.05Z"/><rect class="cls-14" x="671.65" y="1572.05" width="8.33" height="47.4"/><rect class="cls-14" x="656.32" y="1572.05" width="8.34" height="47.4"/><rect class="cls-14" x="686.97" y="1572.05" width="8.33" height="47.4"/><rect class="cls-14" x="702.3" y="1572.05" width="8.33" height="47.4"/><path class="cls-19" d="M924.7,1666.84a4.26,4.26,0,0,1,4.22,4.28V1710a4.25,4.25,0,0,1-4.22,4.27H874.61v-47.4Z"/><rect class="cls-14" x="817.46" y="1666.84" width="57.15" height="47.4" transform="translate(1692.07 3381.08) rotate(180)"/><path class="cls-18" d="M710.21,1666.84a4.27,4.27,0,0,0-4.22,4.28V1710a4.26,4.26,0,0,0,4.22,4.27H752v-47.4Z"/><rect class="cls-20" x="760.32" y="1666.84" width="57.14" height="47.4"/><rect class="cls-19" x="859.28" y="1666.84" width="8.33" height="47.4"/><rect class="cls-19" x="843.95" y="1666.84" width="8.33" height="47.4"/><rect class="cls-19" x="828.62" y="1666.84" width="8.33" height="47.4"/><rect class="cls-21" x="874.61" y="1666.84" width="8.33" height="47.4"/><path class="cls-21" d="M924.7,1666.84a4.26,4.26,0,0,1,4.22,4.28V1710a4.25,4.25,0,0,1-4.22,4.27h-4.11v-47.4Z"/><rect class="cls-21" x="905.26" y="1666.84" width="8.33" height="47.4"/><rect class="cls-21" x="889.93" y="1666.84" width="8.33" height="47.4"/><rect class="cls-19" x="813.29" y="1666.84" width="8.33" height="47.4"/><rect class="cls-20" x="721.33" y="1666.84" width="8.33" height="47.4"/><rect class="cls-20" x="736.66" y="1666.84" width="8.34" height="47.4"/><path class="cls-20" d="M710.22,1666.84h4.11v47.4h-4.11A4.26,4.26,0,0,1,706,1710v-38.85A4.27,4.27,0,0,1,710.22,1666.84Z"/><rect class="cls-14" x="767.31" y="1666.84" width="8.33" height="47.4"/><rect class="cls-14" x="751.98" y="1666.84" width="8.33" height="47.4"/><rect class="cls-14" x="782.64" y="1666.84" width="8.33" height="47.4"/><rect class="cls-14" x="797.96" y="1666.84" width="8.33" height="47.4"/><path class="cls-19" d="M701.51,1666.84a4.27,4.27,0,0,1,4.22,4.28V1710a4.26,4.26,0,0,1-4.22,4.27h-50.1v-47.4Z"/><rect class="cls-14" x="594.27" y="1666.84" width="57.15" height="47.4" transform="translate(1245.68 3381.08) rotate(180)"/><path class="cls-18" d="M487,1666.84a4.27,4.27,0,0,0-4.22,4.28V1710a4.26,4.26,0,0,0,4.22,4.27h41.77v-47.4Z"/><rect class="cls-20" x="537.12" y="1666.84" width="57.14" height="47.4"/><rect class="cls-19" x="636.08" y="1666.84" width="8.33" height="47.4"/><rect class="cls-19" x="620.76" y="1666.84" width="8.33" height="47.4"/><rect class="cls-19" x="605.43" y="1666.84" width="8.33" height="47.4"/><rect class="cls-21" x="651.41" y="1666.84" width="8.33" height="47.4"/><path class="cls-21" d="M701.51,1666.84a4.27,4.27,0,0,1,4.22,4.28V1710a4.26,4.26,0,0,1-4.22,4.27H697.4v-47.4Z"/><rect class="cls-21" x="682.07" y="1666.84" width="8.34" height="47.4"/><rect class="cls-21" x="666.74" y="1666.84" width="8.33" height="47.4"/><rect class="cls-19" x="590.1" y="1666.84" width="8.33" height="47.4"/><rect class="cls-20" x="498.13" y="1666.84" width="8.33" height="47.4"/><rect class="cls-20" x="513.46" y="1666.84" width="8.33" height="47.4"/><path class="cls-20" d="M487,1666.84h4.12v47.4H487a4.25,4.25,0,0,1-4.21-4.27v-38.85A4.26,4.26,0,0,1,487,1666.84Z"/><rect class="cls-14" x="544.12" y="1666.84" width="8.33" height="47.4"/><rect class="cls-14" x="528.79" y="1666.84" width="8.33" height="47.4"/><rect class="cls-14" x="559.45" y="1666.84" width="8.33" height="47.4"/><rect class="cls-14" x="574.77" y="1666.84" width="8.33" height="47.4"/><path class="cls-19" d="M478.32,1666.84a4.27,4.27,0,0,1,4.22,4.28V1710a4.26,4.26,0,0,1-4.22,4.27h-50.1v-47.4Z"/><rect class="cls-14" x="371.07" y="1666.84" width="57.15" height="47.4" transform="translate(799.3 3381.08) rotate(180)"/><path class="cls-18" d="M263.83,1666.84a4.26,4.26,0,0,0-4.22,4.28V1710a4.25,4.25,0,0,0,4.22,4.27H305.6v-47.4Z"/><rect class="cls-20" x="313.93" y="1666.84" width="57.14" height="47.4"/><rect class="cls-19" x="412.89" y="1666.84" width="8.34" height="47.4"/><rect class="cls-19" x="397.57" y="1666.84" width="8.33" height="47.4"/><rect class="cls-19" x="382.24" y="1666.84" width="8.33" height="47.4"/><rect class="cls-21" x="428.22" y="1666.84" width="8.33" height="47.4"/><path class="cls-21" d="M478.32,1666.84a4.27,4.27,0,0,1,4.22,4.28V1710a4.26,4.26,0,0,1-4.22,4.27H474.2v-47.4Z"/><rect class="cls-21" x="458.88" y="1666.84" width="8.33" height="47.4"/><rect class="cls-21" x="443.55" y="1666.84" width="8.33" height="47.4"/><rect class="cls-19" x="366.91" y="1666.84" width="8.33" height="47.4"/><rect class="cls-20" x="274.94" y="1666.84" width="8.33" height="47.4"/><rect class="cls-20" x="290.27" y="1666.84" width="8.33" height="47.4"/><path class="cls-20" d="M263.83,1666.84H268v47.4h-4.12a4.26,4.26,0,0,1-4.22-4.27v-38.85A4.27,4.27,0,0,1,263.83,1666.84Z"/><rect class="cls-14" x="320.93" y="1666.84" width="8.33" height="47.4"/><rect class="cls-14" x="305.6" y="1666.84" width="8.33" height="47.4"/><rect class="cls-14" x="336.25" y="1666.84" width="8.33" height="47.4"/><rect class="cls-14" x="351.58" y="1666.84" width="8.34" height="47.4"/></g><g id="Secondary_shapes" data-name="Secondary shapes"><path class="cls-3" d="M1728,142.36l-33.88-13.45a8,8,0,0,0-7.9,1.15l-28.6,22.61a8,8,0,0,0-2.95,7.41l5.29,36.08a8,8,0,0,0,4.94,6.26l33.88,13.46a8,8,0,0,0,7.9-1.15l28.6-22.61a8,8,0,0,0,3-7.42l-5.28-36.07A8,8,0,0,0,1728,142.36Z"/><path class="cls-3" d="M1017.81,1809.7l39.37,55.82a9.61,9.61,0,0,0,16.57-1.51l28.66-62a9.61,9.61,0,0,0-9.59-13.6l-68,6.18A9.61,9.61,0,0,0,1017.81,1809.7Z"/><path class="cls-5" d="M187.44,649.17l21.34,53.12a8,8,0,0,0,13.81,2l35.33-45a8.05,8.05,0,0,0-5.2-12.94l-56.67-8.07A8,8,0,0,0,187.44,649.17Z"/></g></svg>