<?xml version="1.0" encoding="utf-8"?>
<!-- Generator: Adobe Illustrator 25.0.0, SVG Export Plug-In . SVG Version: 6.00 Build 0)  -->
<svg version="1.1" id="Layer_1" xmlns="http://www.w3.org/2000/svg" xmlns:xlink="http://www.w3.org/1999/xlink" x="0px" y="0px"
	 viewBox="0 0 919 845" style="enable-background:new 0 0 919 845;" xml:space="preserve">
<style type="text/css">
	.st0{fill-rule:evenodd;clip-rule:evenodd;fill:#BC73AD;}
</style>
<path class="st0" d="M185.1,99.4c55.6-57,143.5-62.6,223-68.2c73.4-5.2,141.9,15.4,212.1,37.6c85.7,27.1,179.7,40,241,105.7
	c72.6,77.8,146.9,181.7,124.2,285.7c-22.7,103.9-148.5,141.6-232,207.5c-71.5,56.5-130.1,138.9-220.6,149.8
	c-89.4,10.8-162.7-60.3-246.4-93.6C190.8,686,46.9,704.4,8,609.1c-39.8-97.5,80.5-186.3,115-285.7
	C149.1,248.4,129.6,156.2,185.1,99.4z"/>
</svg>
