<svg id="Layer_1" data-name="Layer 1" xmlns="http://www.w3.org/2000/svg" viewBox="0 0 520 150"><defs><style>.cls-1{fill:#242f72;}</style></defs><polygon class="cls-1" points="230.48 45.64 213.41 82.8 196.07 45.64 184.77 45.64 177.44 105.05 191.33 105.05 195.29 71.33 208.23 98.24 218.58 98.24 231.51 71.25 235.4 105.05 249.28 105.05 242.04 45.64 230.48 45.64"/><path class="cls-1" d="M277,63.75c-11.47,0-21.81,8.45-21.81,21.21s10.34,21.13,21.81,21.13S299,97.64,299,85,288.51,63.75,277,63.75Zm0,30.52c-4.91,0-8.88-3.79-8.88-9.31s4-9.4,8.88-9.4,8.89,3.88,8.89,9.4S282,94.27,277,94.27Z"/><path class="cls-1" d="M331.54,63.75c-3.79,0-10.17,2.58-11.55,8.27V64.78H307.22v40.27H320v-21c0-6.73,4.31-8.54,7.76-8.54,3.19,0,7,2.41,7,8.62v20.87H347.5V83.41C347.5,71.08,342.23,63.75,331.54,63.75Z"/><path class="cls-1" d="M364.05,43.91a7.65,7.65,0,0,0-7.93,7.42c0,4.05,3.62,7.41,7.93,7.41a7.6,7.6,0,0,0,7.76-7.41A7.5,7.5,0,0,0,364.05,43.91Z"/><rect class="cls-1" x="357.67" y="64.78" width="12.76" height="40.27"/><path class="cls-1" d="M405.44,63.75c-3.79,0-10.18,2.58-11.56,8.27V64.78H381.12v40.27h12.76v-21c0-6.73,4.32-8.54,7.77-8.54,3.19,0,7,2.41,7,8.62v20.87h12.76V83.41C421.39,71.08,416.13,63.75,405.44,63.75Z"/><polygon class="cls-1" points="448.13 88.75 439.33 64.78 425.44 64.78 442.52 105.05 453.64 105.05 470.72 64.78 456.83 64.78 448.13 88.75"/><path class="cls-1" d="M494.61,63.75c-11.47,0-21.82,8.45-21.82,21.21s10.35,21.13,21.82,21.13,21.9-8.45,21.9-21.13S506.07,63.75,494.61,63.75Zm0,30.52c-4.92,0-8.89-3.79-8.89-9.31s4-9.4,8.89-9.4,8.88,3.88,8.88,9.4S499.52,94.27,494.61,94.27Z"/><path class="cls-1" d="M74.31,4.19A70.81,70.81,0,1,0,145.12,75,70.82,70.82,0,0,0,74.31,4.19Zm15,49.65a9.15,9.15,0,0,0-9.14,9.06h0V99.85H65.28V62.9h0A9.14,9.14,0,0,0,47,62.9h0V99.85H32.06V65.05C32,64.37,32,63.68,32,63A24.16,24.16,0,0,1,72.74,45.44,24.16,24.16,0,0,1,113.52,63c0,.69,0,1.38-.1,2.06V91.33H98.49V62.9h0A9.15,9.15,0,0,0,89.35,53.84ZM106,114a7.84,7.84,0,1,1,7.84-7.84A7.84,7.84,0,0,1,106,114Z"/></svg>