<svg id="Layer_1" data-name="Layer 1" xmlns="http://www.w3.org/2000/svg" viewBox="0 0 240 240"><defs><style>.cls-1{fill:#242f72;}</style></defs><path class="cls-1" d="M120,0A120,120,0,1,0,240,120,120,120,0,0,0,120,0Zm25.49,84.15A15.5,15.5,0,0,0,130,99.49h0V162.1H104.7V99.49h0a15.5,15.5,0,0,0-31,0h0V162.1H48.41v-59c-.1-1.15-.16-2.31-.16-3.48a40.94,40.94,0,0,1,69.1-29.74,40.94,40.94,0,0,1,69.1,29.74c0,1.17-.07,2.33-.16,3.48v44.54H161V99.49h0A15.5,15.5,0,0,0,145.49,84.15Zm28.15,102a13.29,13.29,0,1,1,13.28-13.29A13.28,13.28,0,0,1,173.64,186.14Z"/></svg>