<?xml version="1.0" encoding="utf-8"?>
<!-- Generator: Adobe Illustrator 25.0.0, SVG Export Plug-In . SVG Version: 6.00 Build 0)  -->
<svg version="1.1" id="Layer_1" xmlns="http://www.w3.org/2000/svg" xmlns:xlink="http://www.w3.org/1999/xlink" x="0px" y="0px"
	 width="240px" height="240px" viewBox="0 0 240 240" style="enable-background:new 0 0 240 240;" xml:space="preserve">
<style type="text/css">
	.st0{fill:#BC73AD;}
</style>
<path class="st0" d="M120,0C53.7,0,0,53.7,0,120s53.7,120,120,120s120-53.7,120-120S186.3,0,120,0z M145.5,84.2
	c-8.5,0-15.4,6.8-15.5,15.3l0,0v62.6h-25.3V99.5l0,0c0-8.6-6.9-15.5-15.5-15.5s-15.5,6.9-15.5,15.5l0,0v62.6H48.4v-59
	c-0.1-1.2-0.2-2.3-0.2-3.5c0-22.6,18.3-41,40.9-41c10.5,0,20.6,4,28.2,11.2c16.4-15.6,42.3-14.9,57.9,1.6
	c7.2,7.6,11.2,17.7,11.2,28.2c0,1.2-0.1,2.3-0.2,3.5v44.5H161V99.5l0,0C160.9,91,154,84.1,145.5,84.2z M173.6,186.1
	c-7.3,0-13.3-5.9-13.3-13.3s5.9-13.3,13.3-13.3s13.3,5.9,13.3,13.3c0,0,0,0,0,0C186.9,180.2,181,186.1,173.6,186.1L173.6,186.1z"/>
</svg>
